<?xml version="1.0" encoding="UTF-8" standalone="no"?>
<svg viewBox="-180 0 1040 660" version="1.1" inkscape:version="1.2.2 (b0a8486541, 2022-12-01)"
  sodipodi:docname="connected.svg" id="svg4147" xmlns:inkscape="http://www.inkscape.org/namespaces/inkscape"
  xmlns:sodipodi="http://sodipodi.sourceforge.net/DTD/sodipodi-0.dtd" xmlns="http://www.w3.org/2000/svg"
  xmlns:svg="http://www.w3.org/2000/svg">
  <title>Connected</title>
  <defs>
    <style type="text/css">/*<![CDATA[*/
      * {
        transition: all 0.5s ease;
      }
      .body {
        stroke: #181929;
        stroke-width: 18;
      }
      .lower.plug .body {
        fill: #0a6715;
      }
      svg:hover .lower.plug .body {
        fill: #187a07;
      }
      .cable {
        stroke: #29181c;
        stroke-width: 31.5;
        stroke-linejoin: round;
        stroke-opacity: 0.644567;
      }
      .lower.plug .cable {
        fill: #8f101f;
      }
      svg:hover .lower.plug .cable {
        fill: #ecf40a;
      }
      .prong {
        fill: #140204;
        stroke: #29181c;
        stroke-width: 6;
        stroke-linejoin: round;
        stroke-opacity: 0.644567;
      }
      .upper.plug .body {
        fill: #914d0e;
      }
      svg:hover .upper.plug .body {
        fill: #08a573;
      }
      .upper.plug .cable {
        fill: #663768;
      }
      svg:hover .upper.plug .cable {
        fill: #dcdc0f;
      }
    /*]]>*/</style>
  </defs>
  
  <g inkscape:label="Layer 1" inkscape:groupmode="layer" id="layer1" transform="translate(-58.2,-7.4)">
    <animateTransform
      attributeName="transform"
      attributeType="XML"
      type="rotate"
      from="0 333 388"
      to="46 333 388"
      begin="0s" dur="1s" fill="freeze" />
    <g class="lower plug" transform="translate(-5,5)">
      <animateTransform
        attributeName="transform"
        attributeType="XML"
        type="translate"
        from="0 0"
        to="-100 100"
        begin="1s" dur="1s" fill="freeze" />
      <rect
        class="prong"
        width="29.960297" height="128.37033" x="441.2327" y="-149.45872" transform="rotate(45)"
        ry="14.980148" />
      <rect
        class="prong"
        width="29.960327" height="128.58321" x="549.72009" y="-149.35857" transform="rotate(45)"
        ry="14.980164" />
      <path class="body"
        d="m 281.23435,518.72867 c 8.04253,8.06345 11.78447,12.3297 17.77261,17.24799 11.41654,9.37683 25.07453,15.54869 41.17328,18.60557 7.0006,1.3293 24.82015,1.43877 31.49871,0.19352 16.32605,-3.0441 28.91228,-8.50699 40.94829,-17.77308 2.10366,-1.61952 12.78949,-11.8639 23.74627,-22.76528 l 19.9214,-19.82071 11.80084,11.80084 11.80083,11.80083 21.26414,-21.25989 21.26343,-21.26061 L 387.54252,340.61567 252.66087,205.7335 l -21.26159,21.25875 -21.26232,21.25808 11.79591,11.80156 11.79588,11.80154 -20.25674,20.37426 c -21.12005,21.24252 -24.52673,25.13258 -29.68452,33.89638 -8.21157,13.95266 -12.3496,29.2489 -12.3496,45.65041 0,5.98767 0.85138,14.58354 1.87129,18.89344 3.24005,13.6917 11.96962,30.20039 16.0625,35.10432 4.09287,4.90393 8.90618,9.84063 17.76336,18.7557 50.84923,-54.84393 128.97525,20.89938 74.84713,74.94726 z"
        sodipodi:nodetypes="cssssscccccccccccsssszccc" />
      <rect
        class="cable" width="105.38755" height="268.14392" x="-566.23602" y="-380.14886" ry="52.693775" rx="52.693775"
        transform="rotate(-135)" />
    </g>
    <g class="upper plug" transform="rotate(45,597.70787,467.8033)">
      <path
        class="body"
        d="m 304.85015,309.66927 c -11.38865,-0.0148 -17.05129,-0.38554 -24.7633,0.37096 -14.70314,1.44229 -28.72496,6.73578 -42.27004,15.95778 -5.89012,4.01021 -18.56786,16.53313 -22.40978,22.13611 -9.39176,13.69677 -14.42873,26.45942 -16.38736,41.52228 -0.34233,2.63269 -0.65448,17.43258 -0.69366,32.88863 l -0.0712,28.10192 h -16.6889 -16.6889 l -0.003,30.06903 -0.002,30.06903 190.75182,3.9e-4 190.75183,3.7e-4 0.002,-30.06642 0.003,-30.06646 -16.68593,-0.004 -16.68589,-0.004 -0.0831,-28.73046 c -0.0866,-29.95486 -0.4284,-35.11443 -2.97824,-44.95848 -4.05956,-15.67248 -11.94961,-29.41458 -23.54723,-41.0122 -4.23392,-4.23392 -10.91413,-9.71011 -14.68288,-12.03648 -11.97255,-7.39043 -29.81869,-12.8911 -36.1804,-13.4646 -6.3617,-0.5735 -13.256,-0.66075 -25.82288,-0.70169 2.82468,74.73635 -105.97737,76.42118 -105.92063,-0.0708 z"
        id="path854" sodipodi:nodetypes="cssssscccccccccccsssszccc" />
      <rect
        class="cable"
        width="105.38755" height="268.14392" x="304.27341" y="97.454239" ry="52.693775" rx="52.693775" />
    </g>
  </g>
</svg>